<mxfile host="app.diagrams.net" modified="2023-09-09T05:52:11.186Z" agent="Mozilla/5.0 (Windows NT 10.0; Win64; x64) AppleWebKit/537.36 (KHTML, like Gecko) Chrome/116.0.0.0 Safari/537.36 Edg/116.0.1938.76" etag="gxO1dxkXaoz_BJ3tHrxg" version="21.7.4" type="device">
  <diagram id="Co5nbBrR2NN09ta7Q-Ko" name="Page-1">
    <mxGraphModel dx="1236" dy="1464" grid="1" gridSize="10" guides="1" tooltips="1" connect="1" arrows="1" fold="1" page="1" pageScale="1" pageWidth="850" pageHeight="1100" math="0" shadow="0">
      <root>
        <mxCell id="0" />
        <mxCell id="1" parent="0" />
        <mxCell id="hwpAo5bEhznhClHGtBJG-23" value="&lt;b&gt;&lt;font style=&quot;font-size: 20px;&quot;&gt;ParkEz - Visualization data map&lt;/font&gt;&lt;/b&gt;" style="rounded=1;whiteSpace=wrap;html=1;fontSize=16;" parent="1" vertex="1">
          <mxGeometry x="620" y="40" width="660" height="60" as="geometry" />
        </mxCell>
        <mxCell id="hwpAo5bEhznhClHGtBJG-28" value="" style="group" parent="1" connectable="0" vertex="1">
          <mxGeometry x="30" y="40" width="320" height="160" as="geometry" />
        </mxCell>
        <mxCell id="hwpAo5bEhznhClHGtBJG-24" value="&lt;b&gt;&lt;font style=&quot;font-size: 12px;&quot;&gt;Legend - Question types&lt;/font&gt;&lt;/b&gt;" style="rounded=1;whiteSpace=wrap;html=1;fontSize=16;" parent="hwpAo5bEhznhClHGtBJG-28" vertex="1">
          <mxGeometry width="320" height="60" as="geometry" />
        </mxCell>
        <mxCell id="hwpAo5bEhznhClHGtBJG-27" value="" style="rounded=0;whiteSpace=wrap;html=1;fontSize=20;" parent="hwpAo5bEhznhClHGtBJG-28" vertex="1">
          <mxGeometry y="53" width="320" height="107" as="geometry" />
        </mxCell>
        <mxCell id="hwpAo5bEhznhClHGtBJG-29" value="&lt;font style=&quot;font-size: 12px;&quot;&gt;Type 1&lt;/font&gt;" style="text;html=1;strokeColor=none;fillColor=none;align=center;verticalAlign=middle;whiteSpace=wrap;rounded=0;fontSize=16;" parent="hwpAo5bEhznhClHGtBJG-28" vertex="1">
          <mxGeometry x="57.6" y="65" width="62.4" height="30" as="geometry" />
        </mxCell>
        <mxCell id="hwpAo5bEhznhClHGtBJG-30" value="&lt;font style=&quot;font-size: 12px;&quot;&gt;Type 2&lt;/font&gt;" style="text;html=1;strokeColor=none;fillColor=none;align=center;verticalAlign=middle;whiteSpace=wrap;rounded=0;fontSize=16;" parent="hwpAo5bEhznhClHGtBJG-28" vertex="1">
          <mxGeometry x="57.599999999999994" y="91.5" width="62.4" height="30" as="geometry" />
        </mxCell>
        <mxCell id="hwpAo5bEhznhClHGtBJG-31" value="&lt;font style=&quot;font-size: 12px;&quot;&gt;Type 3&lt;/font&gt;" style="text;html=1;strokeColor=none;fillColor=none;align=center;verticalAlign=middle;whiteSpace=wrap;rounded=0;fontSize=16;" parent="hwpAo5bEhznhClHGtBJG-28" vertex="1">
          <mxGeometry x="57.599999999999994" y="121.5" width="62.4" height="30" as="geometry" />
        </mxCell>
        <mxCell id="hwpAo5bEhznhClHGtBJG-36" value="&lt;font style=&quot;font-size: 12px;&quot;&gt;Type 4&lt;/font&gt;" style="text;html=1;strokeColor=none;fillColor=none;align=center;verticalAlign=middle;whiteSpace=wrap;rounded=0;fontSize=16;" parent="hwpAo5bEhznhClHGtBJG-28" vertex="1">
          <mxGeometry x="210" y="65" width="62.4" height="30" as="geometry" />
        </mxCell>
        <mxCell id="hwpAo5bEhznhClHGtBJG-37" value="&lt;font style=&quot;font-size: 12px;&quot;&gt;Type 5&lt;/font&gt;" style="text;html=1;strokeColor=none;fillColor=none;align=center;verticalAlign=middle;whiteSpace=wrap;rounded=0;fontSize=16;" parent="hwpAo5bEhznhClHGtBJG-28" vertex="1">
          <mxGeometry x="210" y="91.5" width="62.4" height="30" as="geometry" />
        </mxCell>
        <mxCell id="hwpAo5bEhznhClHGtBJG-39" value="" style="ellipse;shape=cloud;whiteSpace=wrap;html=1;fontSize=12;fillColor=#ffe6cc;strokeColor=#d79b00;" parent="hwpAo5bEhznhClHGtBJG-28" vertex="1">
          <mxGeometry x="20" y="70" width="30" height="20" as="geometry" />
        </mxCell>
        <mxCell id="hwpAo5bEhznhClHGtBJG-40" value="" style="ellipse;shape=cloud;whiteSpace=wrap;html=1;fontSize=12;fillColor=#dae8fc;strokeColor=#6c8ebf;" parent="hwpAo5bEhznhClHGtBJG-28" vertex="1">
          <mxGeometry x="20" y="101.5" width="30" height="20" as="geometry" />
        </mxCell>
        <mxCell id="hwpAo5bEhznhClHGtBJG-41" value="" style="ellipse;shape=cloud;whiteSpace=wrap;html=1;fontSize=12;fillColor=#d5e8d4;strokeColor=#82b366;" parent="hwpAo5bEhznhClHGtBJG-28" vertex="1">
          <mxGeometry x="20" y="131.5" width="30" height="20" as="geometry" />
        </mxCell>
        <mxCell id="hwpAo5bEhznhClHGtBJG-42" value="" style="ellipse;shape=cloud;whiteSpace=wrap;html=1;fontSize=12;fillColor=#f8cecc;strokeColor=#b85450;" parent="hwpAo5bEhznhClHGtBJG-28" vertex="1">
          <mxGeometry x="170" y="70" width="30" height="20" as="geometry" />
        </mxCell>
        <mxCell id="hwpAo5bEhznhClHGtBJG-43" value="" style="ellipse;shape=cloud;whiteSpace=wrap;html=1;fontSize=12;fillColor=#e1d5e7;strokeColor=#9673a6;" parent="hwpAo5bEhznhClHGtBJG-28" vertex="1">
          <mxGeometry x="170" y="96.5" width="30" height="20" as="geometry" />
        </mxCell>
        <mxCell id="EoMygJ7yTvaYGQsmGv9p-21" style="edgeStyle=orthogonalEdgeStyle;rounded=0;orthogonalLoop=1;jettySize=auto;html=1;entryX=0.5;entryY=0.119;entryDx=0;entryDy=0;entryPerimeter=0;endArrow=none;endFill=0;fontSize=12;strokeWidth=1;" parent="1" source="EoMygJ7yTvaYGQsmGv9p-11" target="EoMygJ7yTvaYGQsmGv9p-20" edge="1">
          <mxGeometry relative="1" as="geometry" />
        </mxCell>
        <mxCell id="EoMygJ7yTvaYGQsmGv9p-11" value="&lt;font style=&quot;font-size: 12px;&quot;&gt;Simple loading time statistics&lt;/font&gt;" style="rounded=1;whiteSpace=wrap;html=1;fontSize=12;strokeWidth=1;" parent="1" vertex="1">
          <mxGeometry x="250.5" y="537" width="120" height="60" as="geometry" />
        </mxCell>
        <mxCell id="EoMygJ7yTvaYGQsmGv9p-12" value="Resource consumption per screen" style="rounded=1;whiteSpace=wrap;html=1;" parent="1" vertex="1">
          <mxGeometry x="250" y="449.99999999999994" width="120" height="60" as="geometry" />
        </mxCell>
        <mxCell id="EoMygJ7yTvaYGQsmGv9p-17" value="Exist a screen or module that makes the app crashes?&amp;nbsp;Where, when and why?" style="ellipse;shape=cloud;whiteSpace=wrap;html=1;fillColor=#ffe6cc;strokeColor=#d79b00;" parent="1" vertex="1">
          <mxGeometry x="42" y="852.26" width="296" height="170" as="geometry" />
        </mxCell>
        <mxCell id="EoMygJ7yTvaYGQsmGv9p-20" value="&lt;span style=&quot;font-size: 12px;&quot;&gt;Are the parking spots loading&lt;br style=&quot;font-size: 12px;&quot;&gt;in less than 3 seconds (...)&lt;br style=&quot;font-size: 12px;&quot;&gt;or do we have to change&lt;br style=&quot;font-size: 12px;&quot;&gt;something to achieve this?&lt;/span&gt;" style="ellipse;shape=cloud;whiteSpace=wrap;html=1;fillColor=#ffe6cc;strokeColor=#d79b00;fontSize=12;strokeWidth=1;" parent="1" vertex="1">
          <mxGeometry x="190" y="610" width="241" height="110" as="geometry" />
        </mxCell>
        <mxCell id="EoMygJ7yTvaYGQsmGv9p-22" value="" style="group" parent="1" vertex="1" connectable="0">
          <mxGeometry x="630" y="490" width="100" height="90" as="geometry" />
        </mxCell>
        <mxCell id="EoMygJ7yTvaYGQsmGv9p-7" value="" style="shape=cylinder3;whiteSpace=wrap;html=1;boundedLbl=1;backgroundOutline=1;size=15;" parent="EoMygJ7yTvaYGQsmGv9p-22" vertex="1">
          <mxGeometry width="100" height="90" as="geometry" />
        </mxCell>
        <mxCell id="EoMygJ7yTvaYGQsmGv9p-8" value="&lt;font style=&quot;font-size: 16px;&quot;&gt;&lt;b&gt;App Interactions DB&lt;/b&gt;&lt;/font&gt;" style="text;html=1;strokeColor=none;fillColor=none;align=center;verticalAlign=middle;whiteSpace=wrap;rounded=0;" parent="EoMygJ7yTvaYGQsmGv9p-22" vertex="1">
          <mxGeometry y="40" width="100" height="30" as="geometry" />
        </mxCell>
        <mxCell id="EoMygJ7yTvaYGQsmGv9p-23" value="" style="group" parent="1" vertex="1" connectable="0">
          <mxGeometry x="1085" y="650" width="100" height="80" as="geometry" />
        </mxCell>
        <mxCell id="EoMygJ7yTvaYGQsmGv9p-9" value="" style="shape=cylinder3;whiteSpace=wrap;html=1;boundedLbl=1;backgroundOutline=1;size=15;" parent="EoMygJ7yTvaYGQsmGv9p-23" vertex="1">
          <mxGeometry width="100" height="80" as="geometry" />
        </mxCell>
        <mxCell id="EoMygJ7yTvaYGQsmGv9p-10" value="&lt;font style=&quot;font-size: 16px;&quot;&gt;&lt;b&gt;Users location DB&lt;/b&gt;&lt;/font&gt;" style="text;html=1;strokeColor=none;fillColor=none;align=center;verticalAlign=middle;whiteSpace=wrap;rounded=0;" parent="EoMygJ7yTvaYGQsmGv9p-23" vertex="1">
          <mxGeometry y="40" width="100" height="30" as="geometry" />
        </mxCell>
        <mxCell id="EoMygJ7yTvaYGQsmGv9p-24" value="" style="group" parent="1" vertex="1" connectable="0">
          <mxGeometry x="950" y="606.67" width="100" height="80" as="geometry" />
        </mxCell>
        <mxCell id="EoMygJ7yTvaYGQsmGv9p-1" value="" style="shape=cylinder3;whiteSpace=wrap;html=1;boundedLbl=1;backgroundOutline=1;size=15;" parent="EoMygJ7yTvaYGQsmGv9p-24" vertex="1">
          <mxGeometry width="100" height="80" as="geometry" />
        </mxCell>
        <mxCell id="EoMygJ7yTvaYGQsmGv9p-2" value="&lt;font style=&quot;font-size: 16px;&quot;&gt;&lt;b&gt;Payment methods DB&lt;/b&gt;&lt;/font&gt;" style="text;html=1;strokeColor=none;fillColor=none;align=center;verticalAlign=middle;whiteSpace=wrap;rounded=0;" parent="EoMygJ7yTvaYGQsmGv9p-24" vertex="1">
          <mxGeometry y="40" width="100" height="30" as="geometry" />
        </mxCell>
        <mxCell id="EoMygJ7yTvaYGQsmGv9p-25" value="" style="group" parent="1" vertex="1" connectable="0">
          <mxGeometry x="790" y="606.67" width="100" height="80" as="geometry" />
        </mxCell>
        <mxCell id="EoMygJ7yTvaYGQsmGv9p-3" value="" style="shape=cylinder3;whiteSpace=wrap;html=1;boundedLbl=1;backgroundOutline=1;size=15;" parent="EoMygJ7yTvaYGQsmGv9p-25" vertex="1">
          <mxGeometry width="100" height="80" as="geometry" />
        </mxCell>
        <mxCell id="EoMygJ7yTvaYGQsmGv9p-4" value="&lt;font style=&quot;font-size: 16px;&quot;&gt;&lt;b&gt;Users DB&lt;/b&gt;&lt;/font&gt;" style="text;html=1;strokeColor=none;fillColor=none;align=center;verticalAlign=middle;whiteSpace=wrap;rounded=0;" parent="EoMygJ7yTvaYGQsmGv9p-25" vertex="1">
          <mxGeometry y="40" width="100" height="30" as="geometry" />
        </mxCell>
        <mxCell id="EoMygJ7yTvaYGQsmGv9p-27" value="" style="group" parent="1" vertex="1" connectable="0">
          <mxGeometry x="868" y="490" width="100" height="110" as="geometry" />
        </mxCell>
        <mxCell id="EoMygJ7yTvaYGQsmGv9p-28" value="" style="shape=cylinder3;whiteSpace=wrap;html=1;boundedLbl=1;backgroundOutline=1;size=15;" parent="EoMygJ7yTvaYGQsmGv9p-27" vertex="1">
          <mxGeometry width="100" height="110" as="geometry" />
        </mxCell>
        <mxCell id="EoMygJ7yTvaYGQsmGv9p-29" value="&lt;span style=&quot;font-size: 16px;&quot;&gt;&lt;b&gt;Parking spots reservations DB&lt;/b&gt;&lt;/span&gt;" style="text;html=1;strokeColor=none;fillColor=none;align=center;verticalAlign=middle;whiteSpace=wrap;rounded=0;" parent="EoMygJ7yTvaYGQsmGv9p-27" vertex="1">
          <mxGeometry y="50" width="100" height="41.25" as="geometry" />
        </mxCell>
        <mxCell id="EoMygJ7yTvaYGQsmGv9p-30" value="" style="group" parent="1" connectable="0" vertex="1">
          <mxGeometry x="430.5" y="390" width="110" height="110" as="geometry" />
        </mxCell>
        <mxCell id="EoMygJ7yTvaYGQsmGv9p-31" value="" style="group" parent="EoMygJ7yTvaYGQsmGv9p-30" connectable="0" vertex="1">
          <mxGeometry x="18.333333333333332" width="73.33333333333333" height="86.42857142857143" as="geometry" />
        </mxCell>
        <mxCell id="EoMygJ7yTvaYGQsmGv9p-32" value="" style="ellipse;whiteSpace=wrap;html=1;aspect=fixed;" parent="EoMygJ7yTvaYGQsmGv9p-31" vertex="1">
          <mxGeometry width="73.33333333333333" height="73.33333333333333" as="geometry" />
        </mxCell>
        <mxCell id="EoMygJ7yTvaYGQsmGv9p-33" value="" style="ellipse;whiteSpace=wrap;html=1;aspect=fixed;" parent="EoMygJ7yTvaYGQsmGv9p-31" vertex="1">
          <mxGeometry x="3.3333333333333335" y="3.9285714285714284" width="66.66666666666666" height="66.66666666666666" as="geometry" />
        </mxCell>
        <mxCell id="EoMygJ7yTvaYGQsmGv9p-34" value="&lt;span style=&quot;font-size: 16px;&quot;&gt;Filter resource consumption&lt;/span&gt;" style="text;html=1;strokeColor=#666666;fillColor=#f5f5f5;align=center;verticalAlign=middle;whiteSpace=wrap;rounded=1;fontColor=#333333;" parent="EoMygJ7yTvaYGQsmGv9p-30" vertex="1">
          <mxGeometry y="70" width="110" height="40" as="geometry" />
        </mxCell>
        <mxCell id="EoMygJ7yTvaYGQsmGv9p-35" value="" style="group" parent="1" connectable="0" vertex="1">
          <mxGeometry x="431" y="530" width="110" height="110" as="geometry" />
        </mxCell>
        <mxCell id="EoMygJ7yTvaYGQsmGv9p-36" value="" style="group" parent="EoMygJ7yTvaYGQsmGv9p-35" connectable="0" vertex="1">
          <mxGeometry x="18.333333333333332" width="73.33333333333333" height="86.42857142857143" as="geometry" />
        </mxCell>
        <mxCell id="EoMygJ7yTvaYGQsmGv9p-37" value="" style="ellipse;whiteSpace=wrap;html=1;aspect=fixed;" parent="EoMygJ7yTvaYGQsmGv9p-36" vertex="1">
          <mxGeometry width="73.33333333333333" height="73.33333333333333" as="geometry" />
        </mxCell>
        <mxCell id="EoMygJ7yTvaYGQsmGv9p-38" value="" style="ellipse;whiteSpace=wrap;html=1;aspect=fixed;" parent="EoMygJ7yTvaYGQsmGv9p-36" vertex="1">
          <mxGeometry x="3.3333333333333335" y="3.9285714285714284" width="66.66666666666666" height="66.66666666666666" as="geometry" />
        </mxCell>
        <mxCell id="EoMygJ7yTvaYGQsmGv9p-39" value="&lt;font style=&quot;font-size: 13px;&quot;&gt;Filter parking spots loading time&lt;/font&gt;" style="text;html=1;strokeColor=#666666;fillColor=#f5f5f5;align=center;verticalAlign=middle;whiteSpace=wrap;rounded=1;fontColor=#333333;" parent="EoMygJ7yTvaYGQsmGv9p-35" vertex="1">
          <mxGeometry y="70" width="110" height="40" as="geometry" />
        </mxCell>
        <mxCell id="EoMygJ7yTvaYGQsmGv9p-40" style="edgeStyle=orthogonalEdgeStyle;rounded=0;orthogonalLoop=1;jettySize=auto;html=1;entryX=1;entryY=0.5;entryDx=0;entryDy=0;" parent="1" source="EoMygJ7yTvaYGQsmGv9p-7" target="EoMygJ7yTvaYGQsmGv9p-34" edge="1">
          <mxGeometry relative="1" as="geometry">
            <Array as="points">
              <mxPoint x="580" y="535" />
              <mxPoint x="580" y="480" />
            </Array>
          </mxGeometry>
        </mxCell>
        <mxCell id="EoMygJ7yTvaYGQsmGv9p-41" style="edgeStyle=orthogonalEdgeStyle;rounded=0;orthogonalLoop=1;jettySize=auto;html=1;entryX=1;entryY=0.5;entryDx=0;entryDy=0;" parent="1" source="EoMygJ7yTvaYGQsmGv9p-34" target="EoMygJ7yTvaYGQsmGv9p-12" edge="1">
          <mxGeometry relative="1" as="geometry" />
        </mxCell>
        <mxCell id="EoMygJ7yTvaYGQsmGv9p-42" style="edgeStyle=orthogonalEdgeStyle;rounded=0;orthogonalLoop=1;jettySize=auto;html=1;entryX=1;entryY=0.5;entryDx=0;entryDy=0;" parent="1" source="EoMygJ7yTvaYGQsmGv9p-7" target="EoMygJ7yTvaYGQsmGv9p-37" edge="1">
          <mxGeometry relative="1" as="geometry">
            <Array as="points">
              <mxPoint x="580" y="535" />
              <mxPoint x="580" y="567" />
            </Array>
          </mxGeometry>
        </mxCell>
        <mxCell id="EoMygJ7yTvaYGQsmGv9p-43" style="edgeStyle=orthogonalEdgeStyle;rounded=0;orthogonalLoop=1;jettySize=auto;html=1;entryX=1;entryY=0.5;entryDx=0;entryDy=0;" parent="1" source="EoMygJ7yTvaYGQsmGv9p-37" target="EoMygJ7yTvaYGQsmGv9p-11" edge="1">
          <mxGeometry relative="1" as="geometry" />
        </mxCell>
        <mxCell id="EoMygJ7yTvaYGQsmGv9p-45" value="" style="group" parent="1" connectable="0" vertex="1">
          <mxGeometry x="1175" y="320" width="130" height="120" as="geometry" />
        </mxCell>
        <mxCell id="EoMygJ7yTvaYGQsmGv9p-46" value="" style="group" parent="EoMygJ7yTvaYGQsmGv9p-45" connectable="0" vertex="1">
          <mxGeometry x="18.333333333333332" width="73.33333333333333" height="86.42857142857143" as="geometry" />
        </mxCell>
        <mxCell id="EoMygJ7yTvaYGQsmGv9p-47" value="" style="ellipse;whiteSpace=wrap;html=1;aspect=fixed;" parent="EoMygJ7yTvaYGQsmGv9p-46" vertex="1">
          <mxGeometry width="73.33333333333333" height="73.33333333333333" as="geometry" />
        </mxCell>
        <mxCell id="EoMygJ7yTvaYGQsmGv9p-48" value="" style="ellipse;whiteSpace=wrap;html=1;aspect=fixed;" parent="EoMygJ7yTvaYGQsmGv9p-46" vertex="1">
          <mxGeometry x="3.3333333333333335" y="3.9285714285714284" width="66.66666666666666" height="66.66666666666666" as="geometry" />
        </mxCell>
        <mxCell id="EoMygJ7yTvaYGQsmGv9p-49" value="&lt;font style=&quot;font-size: 13px;&quot;&gt;Relation between parking reservations and datetime&lt;/font&gt;" style="text;html=1;strokeColor=#666666;fillColor=#f5f5f5;align=center;verticalAlign=middle;whiteSpace=wrap;rounded=1;fontColor=#333333;" parent="EoMygJ7yTvaYGQsmGv9p-45" vertex="1">
          <mxGeometry x="-20" y="70" width="150" height="50" as="geometry" />
        </mxCell>
        <mxCell id="EoMygJ7yTvaYGQsmGv9p-52" value="" style="group" parent="1" connectable="0" vertex="1">
          <mxGeometry x="625" y="610" width="120" height="110" as="geometry" />
        </mxCell>
        <mxCell id="EoMygJ7yTvaYGQsmGv9p-53" value="" style="group" parent="EoMygJ7yTvaYGQsmGv9p-52" connectable="0" vertex="1">
          <mxGeometry x="18.333333333333332" width="73.33333333333333" height="86.42857142857143" as="geometry" />
        </mxCell>
        <mxCell id="EoMygJ7yTvaYGQsmGv9p-54" value="" style="ellipse;whiteSpace=wrap;html=1;aspect=fixed;" parent="EoMygJ7yTvaYGQsmGv9p-53" vertex="1">
          <mxGeometry width="73.33333333333333" height="73.33333333333333" as="geometry" />
        </mxCell>
        <mxCell id="EoMygJ7yTvaYGQsmGv9p-55" value="" style="ellipse;whiteSpace=wrap;html=1;aspect=fixed;" parent="EoMygJ7yTvaYGQsmGv9p-53" vertex="1">
          <mxGeometry x="3.3333333333333335" y="3.9285714285714284" width="66.66666666666666" height="66.66666666666666" as="geometry" />
        </mxCell>
        <mxCell id="EoMygJ7yTvaYGQsmGv9p-56" value="&lt;font style=&quot;font-size: 14px;&quot;&gt;Reports and interactions of the user&lt;/font&gt;" style="text;html=1;strokeColor=#666666;fillColor=#f5f5f5;align=center;verticalAlign=middle;whiteSpace=wrap;rounded=1;fontColor=#333333;" parent="EoMygJ7yTvaYGQsmGv9p-52" vertex="1">
          <mxGeometry x="-35" y="70" width="170" height="40" as="geometry" />
        </mxCell>
        <mxCell id="EoMygJ7yTvaYGQsmGv9p-57" style="edgeStyle=orthogonalEdgeStyle;rounded=0;orthogonalLoop=1;jettySize=auto;html=1;entryX=0.5;entryY=0;entryDx=0;entryDy=0;" parent="1" source="EoMygJ7yTvaYGQsmGv9p-7" target="EoMygJ7yTvaYGQsmGv9p-54" edge="1">
          <mxGeometry relative="1" as="geometry" />
        </mxCell>
        <mxCell id="EoMygJ7yTvaYGQsmGv9p-58" style="edgeStyle=orthogonalEdgeStyle;rounded=0;orthogonalLoop=1;jettySize=auto;html=1;entryX=1;entryY=0.5;entryDx=0;entryDy=0;" parent="1" source="EoMygJ7yTvaYGQsmGv9p-3" target="EoMygJ7yTvaYGQsmGv9p-54" edge="1">
          <mxGeometry relative="1" as="geometry" />
        </mxCell>
        <mxCell id="EoMygJ7yTvaYGQsmGv9p-63" style="edgeStyle=orthogonalEdgeStyle;rounded=0;orthogonalLoop=1;jettySize=auto;html=1;entryX=0.875;entryY=0.5;entryDx=0;entryDy=0;entryPerimeter=0;endArrow=none;endFill=0;" parent="1" source="EoMygJ7yTvaYGQsmGv9p-60" target="EoMygJ7yTvaYGQsmGv9p-62" edge="1">
          <mxGeometry relative="1" as="geometry" />
        </mxCell>
        <mxCell id="EoMygJ7yTvaYGQsmGv9p-60" value="Number of taps made for average user when they reserve a spot." style="rounded=1;whiteSpace=wrap;html=1;" parent="1" vertex="1">
          <mxGeometry x="620" y="760" width="120" height="60" as="geometry" />
        </mxCell>
        <mxCell id="EoMygJ7yTvaYGQsmGv9p-61" style="edgeStyle=orthogonalEdgeStyle;rounded=0;orthogonalLoop=1;jettySize=auto;html=1;entryX=0.5;entryY=0;entryDx=0;entryDy=0;" parent="1" source="EoMygJ7yTvaYGQsmGv9p-56" target="EoMygJ7yTvaYGQsmGv9p-60" edge="1">
          <mxGeometry relative="1" as="geometry" />
        </mxCell>
        <mxCell id="EoMygJ7yTvaYGQsmGv9p-62" value="How many steps it takes to reserve a parking spot? Is it possible to reduce unnecessary steps? (improving user experience)" style="ellipse;shape=cloud;whiteSpace=wrap;html=1;fillColor=#dae8fc;strokeColor=#6c8ebf;" parent="1" vertex="1">
          <mxGeometry x="310" y="737.5" width="280.5" height="105" as="geometry" />
        </mxCell>
        <mxCell id="EoMygJ7yTvaYGQsmGv9p-80" style="edgeStyle=orthogonalEdgeStyle;rounded=0;orthogonalLoop=1;jettySize=auto;html=1;entryX=0.5;entryY=0.925;entryDx=0;entryDy=0;entryPerimeter=0;endArrow=none;endFill=0;" parent="1" source="EoMygJ7yTvaYGQsmGv9p-64" target="EoMygJ7yTvaYGQsmGv9p-73" edge="1">
          <mxGeometry relative="1" as="geometry" />
        </mxCell>
        <mxCell id="EoMygJ7yTvaYGQsmGv9p-64" value="Heatmap of the week&#39;s parking reservations" style="rounded=1;whiteSpace=wrap;html=1;" parent="1" vertex="1">
          <mxGeometry x="1170" y="225" width="120" height="60" as="geometry" />
        </mxCell>
        <mxCell id="EoMygJ7yTvaYGQsmGv9p-66" value="" style="group" parent="1" connectable="0" vertex="1">
          <mxGeometry x="822.5" y="330" width="120" height="110" as="geometry" />
        </mxCell>
        <mxCell id="EoMygJ7yTvaYGQsmGv9p-67" value="" style="group" parent="EoMygJ7yTvaYGQsmGv9p-66" connectable="0" vertex="1">
          <mxGeometry x="18.333333333333332" width="73.33333333333333" height="86.42857142857143" as="geometry" />
        </mxCell>
        <mxCell id="EoMygJ7yTvaYGQsmGv9p-68" value="" style="ellipse;whiteSpace=wrap;html=1;aspect=fixed;" parent="EoMygJ7yTvaYGQsmGv9p-67" vertex="1">
          <mxGeometry width="73.33333333333333" height="73.33333333333333" as="geometry" />
        </mxCell>
        <mxCell id="EoMygJ7yTvaYGQsmGv9p-69" value="" style="ellipse;whiteSpace=wrap;html=1;aspect=fixed;" parent="EoMygJ7yTvaYGQsmGv9p-67" vertex="1">
          <mxGeometry x="3.3333333333333335" y="3.9285714285714284" width="66.66666666666666" height="66.66666666666666" as="geometry" />
        </mxCell>
        <mxCell id="EoMygJ7yTvaYGQsmGv9p-70" value="&lt;span style=&quot;font-size: 14px;&quot;&gt;Spots reservation count per parking&lt;/span&gt;" style="text;html=1;strokeColor=#666666;fillColor=#f5f5f5;align=center;verticalAlign=middle;whiteSpace=wrap;rounded=1;fontColor=#333333;" parent="EoMygJ7yTvaYGQsmGv9p-66" vertex="1">
          <mxGeometry x="-10" y="70" width="130" height="40" as="geometry" />
        </mxCell>
        <mxCell id="EoMygJ7yTvaYGQsmGv9p-120" style="edgeStyle=orthogonalEdgeStyle;rounded=0;orthogonalLoop=1;jettySize=auto;html=1;entryX=0.5;entryY=0.93;entryDx=0;entryDy=0;entryPerimeter=0;endArrow=none;endFill=0;" parent="1" source="EoMygJ7yTvaYGQsmGv9p-72" target="EoMygJ7yTvaYGQsmGv9p-81" edge="1">
          <mxGeometry relative="1" as="geometry" />
        </mxCell>
        <mxCell id="EoMygJ7yTvaYGQsmGv9p-72" value="List of Max/Min spot reservations in the parking" style="rounded=1;whiteSpace=wrap;html=1;" parent="1" vertex="1">
          <mxGeometry x="817.5" y="229.99999999999994" width="120" height="60" as="geometry" />
        </mxCell>
        <mxCell id="EoMygJ7yTvaYGQsmGv9p-73" value="&lt;span style=&quot;&quot;&gt;At what time is a parking&lt;br&gt;occupied the most/least?&lt;/span&gt;" style="ellipse;shape=cloud;whiteSpace=wrap;html=1;fillColor=#dae8fc;strokeColor=#6c8ebf;" parent="1" vertex="1">
          <mxGeometry x="1135" y="112.5" width="190" height="85" as="geometry" />
        </mxCell>
        <mxCell id="EoMygJ7yTvaYGQsmGv9p-78" style="edgeStyle=orthogonalEdgeStyle;rounded=0;orthogonalLoop=1;jettySize=auto;html=1;entryX=0.5;entryY=1;entryDx=0;entryDy=0;" parent="1" source="EoMygJ7yTvaYGQsmGv9p-47" target="EoMygJ7yTvaYGQsmGv9p-64" edge="1">
          <mxGeometry relative="1" as="geometry" />
        </mxCell>
        <mxCell id="EoMygJ7yTvaYGQsmGv9p-81" value="&lt;span style=&quot;&quot;&gt;Which spots and sections of&lt;br&gt;the parking are the&lt;br&gt;most/less used?&lt;/span&gt;" style="ellipse;shape=cloud;whiteSpace=wrap;html=1;fillColor=#d5e8d4;strokeColor=#82b366;" parent="1" vertex="1">
          <mxGeometry x="780" y="112.5" width="195" height="100" as="geometry" />
        </mxCell>
        <mxCell id="EoMygJ7yTvaYGQsmGv9p-85" value="" style="group" parent="1" connectable="0" vertex="1">
          <mxGeometry x="863" y="700" width="130" height="110" as="geometry" />
        </mxCell>
        <mxCell id="EoMygJ7yTvaYGQsmGv9p-86" value="" style="group" parent="EoMygJ7yTvaYGQsmGv9p-85" connectable="0" vertex="1">
          <mxGeometry x="18.333333333333332" width="73.33333333333333" height="86.42857142857143" as="geometry" />
        </mxCell>
        <mxCell id="EoMygJ7yTvaYGQsmGv9p-87" value="" style="ellipse;whiteSpace=wrap;html=1;aspect=fixed;" parent="EoMygJ7yTvaYGQsmGv9p-86" vertex="1">
          <mxGeometry width="73.33333333333333" height="73.33333333333333" as="geometry" />
        </mxCell>
        <mxCell id="EoMygJ7yTvaYGQsmGv9p-88" value="" style="ellipse;whiteSpace=wrap;html=1;aspect=fixed;" parent="EoMygJ7yTvaYGQsmGv9p-86" vertex="1">
          <mxGeometry x="3.3333333333333335" y="3.9285714285714284" width="66.66666666666666" height="66.66666666666666" as="geometry" />
        </mxCell>
        <mxCell id="EoMygJ7yTvaYGQsmGv9p-89" value="&lt;font style=&quot;font-size: 12px;&quot;&gt;Relation between user payments per parking spot reservation&lt;/font&gt;" style="text;html=1;strokeColor=#666666;fillColor=#f5f5f5;align=center;verticalAlign=middle;whiteSpace=wrap;rounded=1;fontColor=#333333;" parent="EoMygJ7yTvaYGQsmGv9p-85" vertex="1">
          <mxGeometry x="-20" y="70" width="150" height="40" as="geometry" />
        </mxCell>
        <mxCell id="EoMygJ7yTvaYGQsmGv9p-91" style="edgeStyle=orthogonalEdgeStyle;rounded=0;orthogonalLoop=1;jettySize=auto;html=1;entryX=0;entryY=0.5;entryDx=0;entryDy=0;" parent="1" source="EoMygJ7yTvaYGQsmGv9p-3" target="EoMygJ7yTvaYGQsmGv9p-87" edge="1">
          <mxGeometry relative="1" as="geometry" />
        </mxCell>
        <mxCell id="EoMygJ7yTvaYGQsmGv9p-92" style="edgeStyle=orthogonalEdgeStyle;rounded=0;orthogonalLoop=1;jettySize=auto;html=1;entryX=1;entryY=0.5;entryDx=0;entryDy=0;" parent="1" source="EoMygJ7yTvaYGQsmGv9p-1" target="EoMygJ7yTvaYGQsmGv9p-87" edge="1">
          <mxGeometry relative="1" as="geometry" />
        </mxCell>
        <mxCell id="EoMygJ7yTvaYGQsmGv9p-97" style="edgeStyle=orthogonalEdgeStyle;rounded=0;orthogonalLoop=1;jettySize=auto;html=1;entryX=0.499;entryY=0.131;entryDx=0;entryDy=0;entryPerimeter=0;endArrow=none;endFill=0;" parent="1" source="EoMygJ7yTvaYGQsmGv9p-94" target="EoMygJ7yTvaYGQsmGv9p-96" edge="1">
          <mxGeometry relative="1" as="geometry" />
        </mxCell>
        <mxCell id="EoMygJ7yTvaYGQsmGv9p-94" value="Simple Average/Max price per parkings and users" style="rounded=1;whiteSpace=wrap;html=1;" parent="1" vertex="1">
          <mxGeometry x="858" y="842.5" width="120" height="60" as="geometry" />
        </mxCell>
        <mxCell id="EoMygJ7yTvaYGQsmGv9p-95" style="edgeStyle=orthogonalEdgeStyle;rounded=0;orthogonalLoop=1;jettySize=auto;html=1;entryX=0.5;entryY=0;entryDx=0;entryDy=0;" parent="1" source="EoMygJ7yTvaYGQsmGv9p-89" target="EoMygJ7yTvaYGQsmGv9p-94" edge="1">
          <mxGeometry relative="1" as="geometry" />
        </mxCell>
        <mxCell id="EoMygJ7yTvaYGQsmGv9p-96" value="What is the average/maximum price a user would pay for reserving a parking spot?" style="ellipse;shape=cloud;whiteSpace=wrap;html=1;fillColor=#f8cecc;strokeColor=#b85450;spacingTop=2;" parent="1" vertex="1">
          <mxGeometry x="811" y="910" width="214" height="100" as="geometry" />
        </mxCell>
        <mxCell id="EoMygJ7yTvaYGQsmGv9p-98" value="" style="group" parent="1" connectable="0" vertex="1">
          <mxGeometry x="625" y="330" width="130" height="110" as="geometry" />
        </mxCell>
        <mxCell id="EoMygJ7yTvaYGQsmGv9p-99" value="" style="group" parent="EoMygJ7yTvaYGQsmGv9p-98" connectable="0" vertex="1">
          <mxGeometry x="18.333333333333332" width="73.33333333333333" height="86.42857142857143" as="geometry" />
        </mxCell>
        <mxCell id="EoMygJ7yTvaYGQsmGv9p-100" value="" style="ellipse;whiteSpace=wrap;html=1;aspect=fixed;" parent="EoMygJ7yTvaYGQsmGv9p-99" vertex="1">
          <mxGeometry width="73.33333333333333" height="73.33333333333333" as="geometry" />
        </mxCell>
        <mxCell id="EoMygJ7yTvaYGQsmGv9p-101" value="" style="ellipse;whiteSpace=wrap;html=1;aspect=fixed;" parent="EoMygJ7yTvaYGQsmGv9p-99" vertex="1">
          <mxGeometry x="3.3333333333333335" y="3.9285714285714284" width="66.66666666666666" height="66.66666666666666" as="geometry" />
        </mxCell>
        <mxCell id="EoMygJ7yTvaYGQsmGv9p-102" value="&lt;font style=&quot;font-size: 14px;&quot;&gt;List of steps a user takes to reserve a spot&lt;/font&gt;" style="text;html=1;strokeColor=#666666;fillColor=#f5f5f5;align=center;verticalAlign=middle;whiteSpace=wrap;rounded=1;fontColor=#333333;" parent="EoMygJ7yTvaYGQsmGv9p-98" vertex="1">
          <mxGeometry x="-20" y="70" width="150" height="40" as="geometry" />
        </mxCell>
        <mxCell id="EoMygJ7yTvaYGQsmGv9p-122" style="edgeStyle=orthogonalEdgeStyle;rounded=0;orthogonalLoop=1;jettySize=auto;html=1;entryX=0.5;entryY=0.951;entryDx=0;entryDy=0;entryPerimeter=0;endArrow=none;endFill=0;" parent="1" source="EoMygJ7yTvaYGQsmGv9p-104" target="EoMygJ7yTvaYGQsmGv9p-105" edge="1">
          <mxGeometry relative="1" as="geometry" />
        </mxCell>
        <mxCell id="EoMygJ7yTvaYGQsmGv9p-104" value="Diagram of criteria to reserve a spot" style="rounded=1;whiteSpace=wrap;html=1;" parent="1" vertex="1">
          <mxGeometry x="620" y="229.99999999999994" width="120" height="60" as="geometry" />
        </mxCell>
        <mxCell id="EoMygJ7yTvaYGQsmGv9p-105" value="What criteria are the users using&lt;br&gt;to select a parking spot?" style="ellipse;shape=cloud;whiteSpace=wrap;html=1;fillColor=#d5e8d4;strokeColor=#82b366;spacingTop=-5;" parent="1" vertex="1">
          <mxGeometry x="570.25" y="112.5" width="219.5" height="102.5" as="geometry" />
        </mxCell>
        <mxCell id="EoMygJ7yTvaYGQsmGv9p-106" style="edgeStyle=orthogonalEdgeStyle;rounded=0;orthogonalLoop=1;jettySize=auto;html=1;entryX=0.5;entryY=0;entryDx=0;entryDy=0;" parent="1" source="EoMygJ7yTvaYGQsmGv9p-28" target="EoMygJ7yTvaYGQsmGv9p-87" edge="1">
          <mxGeometry relative="1" as="geometry" />
        </mxCell>
        <mxCell id="EoMygJ7yTvaYGQsmGv9p-107" value="" style="group" parent="1" connectable="0" vertex="1">
          <mxGeometry x="1000" y="330" width="120" height="110" as="geometry" />
        </mxCell>
        <mxCell id="EoMygJ7yTvaYGQsmGv9p-108" value="" style="group" parent="EoMygJ7yTvaYGQsmGv9p-107" connectable="0" vertex="1">
          <mxGeometry x="18.333333333333332" width="73.33333333333333" height="86.42857142857143" as="geometry" />
        </mxCell>
        <mxCell id="EoMygJ7yTvaYGQsmGv9p-109" value="" style="ellipse;whiteSpace=wrap;html=1;aspect=fixed;" parent="EoMygJ7yTvaYGQsmGv9p-108" vertex="1">
          <mxGeometry width="73.33333333333333" height="73.33333333333333" as="geometry" />
        </mxCell>
        <mxCell id="EoMygJ7yTvaYGQsmGv9p-110" value="" style="ellipse;whiteSpace=wrap;html=1;aspect=fixed;" parent="EoMygJ7yTvaYGQsmGv9p-108" vertex="1">
          <mxGeometry x="3.3333333333333335" y="3.9285714285714284" width="66.66666666666666" height="66.66666666666666" as="geometry" />
        </mxCell>
        <mxCell id="EoMygJ7yTvaYGQsmGv9p-111" value="&lt;font style=&quot;font-size: 13px;&quot;&gt;List of most reserved parking spots&lt;/font&gt;" style="text;html=1;strokeColor=#666666;fillColor=#f5f5f5;align=center;verticalAlign=middle;whiteSpace=wrap;rounded=1;fontColor=#333333;" parent="EoMygJ7yTvaYGQsmGv9p-107" vertex="1">
          <mxGeometry x="-10" y="70" width="130" height="40" as="geometry" />
        </mxCell>
        <mxCell id="EoMygJ7yTvaYGQsmGv9p-118" style="edgeStyle=orthogonalEdgeStyle;rounded=0;orthogonalLoop=1;jettySize=auto;html=1;entryX=0.511;entryY=0.925;entryDx=0;entryDy=0;entryPerimeter=0;endArrow=none;endFill=0;" parent="1" source="EoMygJ7yTvaYGQsmGv9p-112" target="EoMygJ7yTvaYGQsmGv9p-113" edge="1">
          <mxGeometry relative="1" as="geometry" />
        </mxCell>
        <mxCell id="EoMygJ7yTvaYGQsmGv9p-112" value="Simple List" style="rounded=1;whiteSpace=wrap;html=1;" parent="1" vertex="1">
          <mxGeometry x="995" y="224.99999999999994" width="120" height="60" as="geometry" />
        </mxCell>
        <mxCell id="EoMygJ7yTvaYGQsmGv9p-113" value="Which places are the most requested in the city?" style="ellipse;shape=cloud;whiteSpace=wrap;html=1;fillColor=#f8cecc;strokeColor=#b85450;spacingTop=5;" parent="1" vertex="1">
          <mxGeometry x="955.5" y="112.5" width="195" height="100" as="geometry" />
        </mxCell>
        <mxCell id="EoMygJ7yTvaYGQsmGv9p-115" style="edgeStyle=orthogonalEdgeStyle;rounded=0;orthogonalLoop=1;jettySize=auto;html=1;entryX=0.5;entryY=1;entryDx=0;entryDy=0;" parent="1" source="EoMygJ7yTvaYGQsmGv9p-109" target="EoMygJ7yTvaYGQsmGv9p-112" edge="1">
          <mxGeometry relative="1" as="geometry" />
        </mxCell>
        <mxCell id="EoMygJ7yTvaYGQsmGv9p-119" style="edgeStyle=orthogonalEdgeStyle;rounded=0;orthogonalLoop=1;jettySize=auto;html=1;entryX=0.5;entryY=1;entryDx=0;entryDy=0;exitX=0.5;exitY=0;exitDx=0;exitDy=0;" parent="1" source="EoMygJ7yTvaYGQsmGv9p-68" target="EoMygJ7yTvaYGQsmGv9p-72" edge="1">
          <mxGeometry relative="1" as="geometry" />
        </mxCell>
        <mxCell id="EoMygJ7yTvaYGQsmGv9p-121" style="edgeStyle=orthogonalEdgeStyle;rounded=0;orthogonalLoop=1;jettySize=auto;html=1;entryX=0.5;entryY=1;entryDx=0;entryDy=0;" parent="1" source="EoMygJ7yTvaYGQsmGv9p-100" target="EoMygJ7yTvaYGQsmGv9p-104" edge="1">
          <mxGeometry relative="1" as="geometry" />
        </mxCell>
        <mxCell id="EoMygJ7yTvaYGQsmGv9p-123" style="edgeStyle=orthogonalEdgeStyle;rounded=0;orthogonalLoop=1;jettySize=auto;html=1;entryX=0.5;entryY=1;entryDx=0;entryDy=0;" parent="1" source="EoMygJ7yTvaYGQsmGv9p-28" target="EoMygJ7yTvaYGQsmGv9p-49" edge="1">
          <mxGeometry relative="1" as="geometry">
            <Array as="points">
              <mxPoint x="918" y="470" />
              <mxPoint x="1230" y="470" />
            </Array>
          </mxGeometry>
        </mxCell>
        <mxCell id="EoMygJ7yTvaYGQsmGv9p-124" style="edgeStyle=orthogonalEdgeStyle;rounded=0;orthogonalLoop=1;jettySize=auto;html=1;entryX=0.5;entryY=1;entryDx=0;entryDy=0;" parent="1" source="EoMygJ7yTvaYGQsmGv9p-28" target="EoMygJ7yTvaYGQsmGv9p-111" edge="1">
          <mxGeometry relative="1" as="geometry">
            <Array as="points">
              <mxPoint x="918" y="470" />
              <mxPoint x="1055" y="470" />
            </Array>
          </mxGeometry>
        </mxCell>
        <mxCell id="EoMygJ7yTvaYGQsmGv9p-125" style="edgeStyle=orthogonalEdgeStyle;rounded=0;orthogonalLoop=1;jettySize=auto;html=1;entryX=0.5;entryY=1;entryDx=0;entryDy=0;" parent="1" source="EoMygJ7yTvaYGQsmGv9p-28" target="EoMygJ7yTvaYGQsmGv9p-70" edge="1">
          <mxGeometry relative="1" as="geometry">
            <Array as="points">
              <mxPoint x="918" y="470" />
              <mxPoint x="878" y="470" />
            </Array>
          </mxGeometry>
        </mxCell>
        <mxCell id="EoMygJ7yTvaYGQsmGv9p-126" style="edgeStyle=orthogonalEdgeStyle;rounded=0;orthogonalLoop=1;jettySize=auto;html=1;entryX=0.5;entryY=1;entryDx=0;entryDy=0;" parent="1" source="EoMygJ7yTvaYGQsmGv9p-28" target="EoMygJ7yTvaYGQsmGv9p-102" edge="1">
          <mxGeometry relative="1" as="geometry">
            <Array as="points">
              <mxPoint x="918" y="470" />
              <mxPoint x="680" y="470" />
            </Array>
          </mxGeometry>
        </mxCell>
        <mxCell id="EoMygJ7yTvaYGQsmGv9p-127" style="edgeStyle=orthogonalEdgeStyle;rounded=0;orthogonalLoop=1;jettySize=auto;html=1;entryX=0.5;entryY=1;entryDx=0;entryDy=0;" parent="1" source="EoMygJ7yTvaYGQsmGv9p-7" target="EoMygJ7yTvaYGQsmGv9p-102" edge="1">
          <mxGeometry relative="1" as="geometry" />
        </mxCell>
        <mxCell id="EoMygJ7yTvaYGQsmGv9p-128" value="" style="group" parent="1" connectable="0" vertex="1">
          <mxGeometry x="1080" y="488" width="130" height="110" as="geometry" />
        </mxCell>
        <mxCell id="EoMygJ7yTvaYGQsmGv9p-129" value="" style="group" parent="EoMygJ7yTvaYGQsmGv9p-128" connectable="0" vertex="1">
          <mxGeometry x="18.333333333333332" width="73.33333333333333" height="86.42857142857143" as="geometry" />
        </mxCell>
        <mxCell id="EoMygJ7yTvaYGQsmGv9p-130" value="" style="ellipse;whiteSpace=wrap;html=1;aspect=fixed;" parent="EoMygJ7yTvaYGQsmGv9p-129" vertex="1">
          <mxGeometry width="73.33333333333333" height="73.33333333333333" as="geometry" />
        </mxCell>
        <mxCell id="EoMygJ7yTvaYGQsmGv9p-131" value="" style="ellipse;whiteSpace=wrap;html=1;aspect=fixed;" parent="EoMygJ7yTvaYGQsmGv9p-129" vertex="1">
          <mxGeometry x="3.3333333333333335" y="3.9285714285714284" width="66.66666666666666" height="66.66666666666666" as="geometry" />
        </mxCell>
        <mxCell id="EoMygJ7yTvaYGQsmGv9p-132" value="&lt;font style=&quot;font-size: 12px;&quot;&gt;Relation between Parking spot reservation start-end and User location&lt;/font&gt;" style="text;html=1;strokeColor=#666666;fillColor=#f5f5f5;align=center;verticalAlign=middle;whiteSpace=wrap;rounded=1;fontColor=#333333;" parent="EoMygJ7yTvaYGQsmGv9p-128" vertex="1">
          <mxGeometry x="-20" y="70" width="150" height="40" as="geometry" />
        </mxCell>
        <mxCell id="EoMygJ7yTvaYGQsmGv9p-133" value="" style="group" parent="1" connectable="0" vertex="1">
          <mxGeometry x="1080" y="770" width="120" height="110" as="geometry" />
        </mxCell>
        <mxCell id="EoMygJ7yTvaYGQsmGv9p-134" value="" style="group" parent="EoMygJ7yTvaYGQsmGv9p-133" connectable="0" vertex="1">
          <mxGeometry x="18.333333333333332" width="73.33333333333333" height="86.42857142857143" as="geometry" />
        </mxCell>
        <mxCell id="EoMygJ7yTvaYGQsmGv9p-135" value="" style="ellipse;whiteSpace=wrap;html=1;aspect=fixed;" parent="EoMygJ7yTvaYGQsmGv9p-134" vertex="1">
          <mxGeometry width="73.33333333333333" height="73.33333333333333" as="geometry" />
        </mxCell>
        <mxCell id="EoMygJ7yTvaYGQsmGv9p-136" value="" style="ellipse;whiteSpace=wrap;html=1;aspect=fixed;" parent="EoMygJ7yTvaYGQsmGv9p-134" vertex="1">
          <mxGeometry x="3.3333333333333335" y="3.9285714285714284" width="66.66666666666666" height="66.66666666666666" as="geometry" />
        </mxCell>
        <mxCell id="EoMygJ7yTvaYGQsmGv9p-137" value="&lt;font style=&quot;font-size: 14px;&quot;&gt;Filter User frequented places&lt;/font&gt;" style="text;html=1;strokeColor=#666666;fillColor=#f5f5f5;align=center;verticalAlign=middle;whiteSpace=wrap;rounded=1;fontColor=#333333;" parent="EoMygJ7yTvaYGQsmGv9p-133" vertex="1">
          <mxGeometry x="-10" y="70" width="130" height="40" as="geometry" />
        </mxCell>
        <mxCell id="EoMygJ7yTvaYGQsmGv9p-139" style="edgeStyle=orthogonalEdgeStyle;rounded=0;orthogonalLoop=1;jettySize=auto;html=1;entryX=0;entryY=0.5;entryDx=0;entryDy=0;exitX=1;exitY=0;exitDx=0;exitDy=35;exitPerimeter=0;" parent="1" source="EoMygJ7yTvaYGQsmGv9p-28" target="EoMygJ7yTvaYGQsmGv9p-130" edge="1">
          <mxGeometry relative="1" as="geometry" />
        </mxCell>
        <mxCell id="EoMygJ7yTvaYGQsmGv9p-142" style="edgeStyle=orthogonalEdgeStyle;rounded=0;orthogonalLoop=1;jettySize=auto;html=1;entryX=0.5;entryY=1;entryDx=0;entryDy=0;" parent="1" source="EoMygJ7yTvaYGQsmGv9p-9" target="EoMygJ7yTvaYGQsmGv9p-132" edge="1">
          <mxGeometry relative="1" as="geometry" />
        </mxCell>
        <mxCell id="EoMygJ7yTvaYGQsmGv9p-151" style="edgeStyle=orthogonalEdgeStyle;rounded=0;orthogonalLoop=1;jettySize=auto;html=1;entryX=0.16;entryY=0.55;entryDx=0;entryDy=0;entryPerimeter=0;endArrow=none;endFill=0;exitX=1;exitY=0.5;exitDx=0;exitDy=0;" parent="1" source="EoMygJ7yTvaYGQsmGv9p-148" target="EoMygJ7yTvaYGQsmGv9p-150" edge="1">
          <mxGeometry relative="1" as="geometry" />
        </mxCell>
        <mxCell id="EoMygJ7yTvaYGQsmGv9p-148" value="List Users that use the service more than 6 hours a day" style="rounded=1;whiteSpace=wrap;html=1;" parent="1" vertex="1">
          <mxGeometry x="1260" y="450" width="120" height="60" as="geometry" />
        </mxCell>
        <mxCell id="EoMygJ7yTvaYGQsmGv9p-149" style="edgeStyle=orthogonalEdgeStyle;rounded=0;orthogonalLoop=1;jettySize=auto;html=1;entryX=0;entryY=0.5;entryDx=0;entryDy=0;exitX=1;exitY=0.5;exitDx=0;exitDy=0;" parent="1" source="EoMygJ7yTvaYGQsmGv9p-130" target="EoMygJ7yTvaYGQsmGv9p-148" edge="1">
          <mxGeometry relative="1" as="geometry" />
        </mxCell>
        <mxCell id="EoMygJ7yTvaYGQsmGv9p-150" value="&lt;span style=&quot;&quot;&gt;What users use the parking &lt;br&gt;service for more than 6 &lt;br&gt;hours on a day?&lt;br&gt;(Type 2, 4)&lt;br&gt;&lt;/span&gt;" style="ellipse;shape=cloud;whiteSpace=wrap;html=1;fillColor=#e1d5e7;strokeColor=#9673a6;" parent="1" vertex="1">
          <mxGeometry x="1440" y="414" width="210" height="120" as="geometry" />
        </mxCell>
        <mxCell id="EoMygJ7yTvaYGQsmGv9p-153" value="What are the nearest parking from the users&#39; most frequented places? (improving daily usage/interaction)" style="ellipse;shape=cloud;whiteSpace=wrap;html=1;fillColor=#dae8fc;strokeColor=#6c8ebf;spacingTop=5;" parent="1" vertex="1">
          <mxGeometry x="1100" y="1022.26" width="240" height="103" as="geometry" />
        </mxCell>
        <mxCell id="EoMygJ7yTvaYGQsmGv9p-156" value="Identify the daily places where the people go. i.e. work, gym ... " style="rounded=1;whiteSpace=wrap;html=1;" parent="1" vertex="1">
          <mxGeometry x="1150.5" y="920" width="120" height="60" as="geometry" />
        </mxCell>
        <mxCell id="EoMygJ7yTvaYGQsmGv9p-158" style="edgeStyle=orthogonalEdgeStyle;rounded=0;orthogonalLoop=1;jettySize=auto;html=1;entryX=0.5;entryY=0;entryDx=0;entryDy=0;" parent="1" source="EoMygJ7yTvaYGQsmGv9p-9" target="EoMygJ7yTvaYGQsmGv9p-135" edge="1">
          <mxGeometry relative="1" as="geometry" />
        </mxCell>
        <mxCell id="EoMygJ7yTvaYGQsmGv9p-160" style="edgeStyle=orthogonalEdgeStyle;rounded=0;orthogonalLoop=1;jettySize=auto;html=1;entryX=0.5;entryY=0;entryDx=0;entryDy=0;" parent="1" source="EoMygJ7yTvaYGQsmGv9p-137" target="EoMygJ7yTvaYGQsmGv9p-156" edge="1">
          <mxGeometry relative="1" as="geometry" />
        </mxCell>
        <mxCell id="EoMygJ7yTvaYGQsmGv9p-164" style="edgeStyle=orthogonalEdgeStyle;rounded=0;orthogonalLoop=1;jettySize=auto;html=1;entryX=0.16;entryY=0.55;entryDx=0;entryDy=0;entryPerimeter=0;endArrow=none;endFill=0;" parent="1" source="EoMygJ7yTvaYGQsmGv9p-161" target="EoMygJ7yTvaYGQsmGv9p-163" edge="1">
          <mxGeometry relative="1" as="geometry" />
        </mxCell>
        <mxCell id="EoMygJ7yTvaYGQsmGv9p-161" value="Average of start-end difference filtered by parking spots" style="rounded=1;whiteSpace=wrap;html=1;" parent="1" vertex="1">
          <mxGeometry x="1260" y="580" width="120" height="60" as="geometry" />
        </mxCell>
        <mxCell id="EoMygJ7yTvaYGQsmGv9p-162" style="edgeStyle=orthogonalEdgeStyle;rounded=0;orthogonalLoop=1;jettySize=auto;html=1;entryX=0;entryY=0.5;entryDx=0;entryDy=0;" parent="1" source="EoMygJ7yTvaYGQsmGv9p-132" target="EoMygJ7yTvaYGQsmGv9p-161" edge="1">
          <mxGeometry relative="1" as="geometry" />
        </mxCell>
        <mxCell id="EoMygJ7yTvaYGQsmGv9p-163" value="What is the average waiting time for a parking spot to be freed? (improving experience)" style="ellipse;shape=cloud;whiteSpace=wrap;html=1;fillColor=#dae8fc;strokeColor=#6c8ebf;spacingTop=5;" parent="1" vertex="1">
          <mxGeometry x="1430" y="553" width="200" height="103" as="geometry" />
        </mxCell>
        <mxCell id="EoMygJ7yTvaYGQsmGv9p-168" style="edgeStyle=orthogonalEdgeStyle;rounded=0;orthogonalLoop=1;jettySize=auto;html=1;entryX=0.16;entryY=0.55;entryDx=0;entryDy=0;entryPerimeter=0;endArrow=none;endFill=0;" parent="1" source="EoMygJ7yTvaYGQsmGv9p-165" target="EoMygJ7yTvaYGQsmGv9p-167" edge="1">
          <mxGeometry relative="1" as="geometry" />
        </mxCell>
        <mxCell id="EoMygJ7yTvaYGQsmGv9p-165" value="Count of matching user location and parking location" style="rounded=1;whiteSpace=wrap;html=1;" parent="1" vertex="1">
          <mxGeometry x="1260" y="696" width="120" height="60" as="geometry" />
        </mxCell>
        <mxCell id="EoMygJ7yTvaYGQsmGv9p-166" style="edgeStyle=orthogonalEdgeStyle;rounded=0;orthogonalLoop=1;jettySize=auto;html=1;entryX=0;entryY=0.5;entryDx=0;entryDy=0;" parent="1" source="EoMygJ7yTvaYGQsmGv9p-132" target="EoMygJ7yTvaYGQsmGv9p-165" edge="1">
          <mxGeometry relative="1" as="geometry" />
        </mxCell>
        <mxCell id="EoMygJ7yTvaYGQsmGv9p-167" value="How many times per reserve is the user location matching the parking location? (update - Prehold a spot for a certain amountof time)" style="ellipse;shape=cloud;whiteSpace=wrap;html=1;fillColor=#d5e8d4;strokeColor=#82b366;spacingTop=5;" parent="1" vertex="1">
          <mxGeometry x="1450" y="660" width="250" height="120" as="geometry" />
        </mxCell>
        <mxCell id="DVOCkbZ2Qbf9s4pc3wgh-1" value="" style="group" parent="1" vertex="1" connectable="0">
          <mxGeometry x="500" y="870" width="125" height="110" as="geometry" />
        </mxCell>
        <mxCell id="DVOCkbZ2Qbf9s4pc3wgh-2" value="" style="shape=cylinder3;whiteSpace=wrap;html=1;boundedLbl=1;backgroundOutline=1;size=15;" parent="DVOCkbZ2Qbf9s4pc3wgh-1" vertex="1">
          <mxGeometry width="125" height="110.00000000000001" as="geometry" />
        </mxCell>
        <mxCell id="DVOCkbZ2Qbf9s4pc3wgh-3" value="&lt;font style=&quot;font-size: 16px;&quot;&gt;&lt;b&gt;APP ERROR BUGS, CRASHES REPORTS DB&lt;/b&gt;&lt;/font&gt;" style="text;html=1;strokeColor=none;fillColor=none;align=center;verticalAlign=middle;whiteSpace=wrap;rounded=0;" parent="DVOCkbZ2Qbf9s4pc3wgh-1" vertex="1">
          <mxGeometry y="48.88888888888889" width="125" height="36.66666666666667" as="geometry" />
        </mxCell>
        <mxCell id="DVOCkbZ2Qbf9s4pc3wgh-5" style="edgeStyle=orthogonalEdgeStyle;rounded=0;orthogonalLoop=1;jettySize=auto;html=1;entryX=0.946;entryY=0.663;entryDx=0;entryDy=0;entryPerimeter=0;" parent="1" source="DVOCkbZ2Qbf9s4pc3wgh-2" target="EoMygJ7yTvaYGQsmGv9p-54" edge="1">
          <mxGeometry relative="1" as="geometry">
            <Array as="points">
              <mxPoint x="780" y="915" />
              <mxPoint x="780" y="659" />
            </Array>
          </mxGeometry>
        </mxCell>
        <mxCell id="DVOCkbZ2Qbf9s4pc3wgh-17" value="" style="group" parent="1" connectable="0" vertex="1">
          <mxGeometry x="360" y="900" width="110" height="110" as="geometry" />
        </mxCell>
        <mxCell id="DVOCkbZ2Qbf9s4pc3wgh-18" value="" style="group" parent="DVOCkbZ2Qbf9s4pc3wgh-17" connectable="0" vertex="1">
          <mxGeometry x="18.333333333333332" width="73.33333333333333" height="86.42857142857143" as="geometry" />
        </mxCell>
        <mxCell id="DVOCkbZ2Qbf9s4pc3wgh-19" value="" style="ellipse;whiteSpace=wrap;html=1;aspect=fixed;" parent="DVOCkbZ2Qbf9s4pc3wgh-18" vertex="1">
          <mxGeometry width="73.33333333333333" height="73.33333333333333" as="geometry" />
        </mxCell>
        <mxCell id="DVOCkbZ2Qbf9s4pc3wgh-20" value="" style="ellipse;whiteSpace=wrap;html=1;aspect=fixed;" parent="DVOCkbZ2Qbf9s4pc3wgh-18" vertex="1">
          <mxGeometry x="3.3333333333333335" y="3.9285714285714284" width="66.66666666666666" height="66.66666666666666" as="geometry" />
        </mxCell>
        <mxCell id="DVOCkbZ2Qbf9s4pc3wgh-24" style="edgeStyle=orthogonalEdgeStyle;rounded=0;orthogonalLoop=1;jettySize=auto;html=1;endArrow=none;endFill=0;fontSize=12;strokeWidth=1;" parent="DVOCkbZ2Qbf9s4pc3wgh-18" source="DVOCkbZ2Qbf9s4pc3wgh-20" edge="1">
          <mxGeometry relative="1" as="geometry">
            <mxPoint x="-68.83333333333331" y="-213.33000000000004" as="sourcePoint" />
            <mxPoint x="-68.33333333333331" y="40" as="targetPoint" />
            <Array as="points">
              <mxPoint x="-68" y="40" />
              <mxPoint x="-68" y="40" />
            </Array>
          </mxGeometry>
        </mxCell>
        <mxCell id="DVOCkbZ2Qbf9s4pc3wgh-21" value="&lt;span style=&quot;font-size: 13px;&quot;&gt;Filter the consistent reports&lt;/span&gt;" style="text;html=1;strokeColor=#666666;fillColor=#f5f5f5;align=center;verticalAlign=middle;whiteSpace=wrap;rounded=1;fontColor=#333333;" parent="DVOCkbZ2Qbf9s4pc3wgh-17" vertex="1">
          <mxGeometry y="70" width="110" height="40" as="geometry" />
        </mxCell>
        <mxCell id="DVOCkbZ2Qbf9s4pc3wgh-22" style="edgeStyle=orthogonalEdgeStyle;rounded=0;orthogonalLoop=1;jettySize=auto;html=1;entryX=1;entryY=0.5;entryDx=0;entryDy=0;" parent="1" source="DVOCkbZ2Qbf9s4pc3wgh-3" target="DVOCkbZ2Qbf9s4pc3wgh-20" edge="1">
          <mxGeometry relative="1" as="geometry" />
        </mxCell>
        <mxCell id="DVOCkbZ2Qbf9s4pc3wgh-26" style="edgeStyle=orthogonalEdgeStyle;rounded=0;orthogonalLoop=1;jettySize=auto;html=1;endArrow=none;endFill=0;fontSize=12;strokeWidth=1;exitX=0;exitY=0.75;exitDx=0;exitDy=0;entryX=0.518;entryY=0.134;entryDx=0;entryDy=0;entryPerimeter=0;" parent="1" source="EoMygJ7yTvaYGQsmGv9p-12" target="EoMygJ7yTvaYGQsmGv9p-17" edge="1">
          <mxGeometry relative="1" as="geometry">
            <mxPoint x="210" y="511" as="sourcePoint" />
            <mxPoint x="210" y="537" as="targetPoint" />
            <Array as="points">
              <mxPoint x="180" y="495" />
              <mxPoint x="180" y="875" />
            </Array>
          </mxGeometry>
        </mxCell>
        <mxCell id="DVOCkbZ2Qbf9s4pc3wgh-28" value="" style="group" parent="1" connectable="0" vertex="1">
          <mxGeometry x="990" y="1000" width="139.99999999999997" height="130" as="geometry" />
        </mxCell>
        <mxCell id="DVOCkbZ2Qbf9s4pc3wgh-29" value="" style="group" parent="DVOCkbZ2Qbf9s4pc3wgh-28" connectable="0" vertex="1">
          <mxGeometry x="18.333333333333332" width="121.66666666666663" height="102.14285714285715" as="geometry" />
        </mxCell>
        <mxCell id="DVOCkbZ2Qbf9s4pc3wgh-30" value="" style="ellipse;whiteSpace=wrap;html=1;aspect=fixed;" parent="DVOCkbZ2Qbf9s4pc3wgh-29" vertex="1">
          <mxGeometry width="73.33333333333333" height="73.33333333333333" as="geometry" />
        </mxCell>
        <mxCell id="DVOCkbZ2Qbf9s4pc3wgh-31" value="" style="ellipse;whiteSpace=wrap;html=1;aspect=fixed;" parent="DVOCkbZ2Qbf9s4pc3wgh-29" vertex="1">
          <mxGeometry x="3.3333333333333335" y="4.642857142857143" width="66.66666666666666" height="66.66666666666666" as="geometry" />
        </mxCell>
        <mxCell id="DVOCkbZ2Qbf9s4pc3wgh-32" value="&lt;font style=&quot;font-size: 14px;&quot;&gt;Filter the credit card payments by time.&lt;/font&gt;" style="text;html=1;strokeColor=#666666;fillColor=#f5f5f5;align=center;verticalAlign=middle;whiteSpace=wrap;rounded=1;fontColor=#333333;" parent="DVOCkbZ2Qbf9s4pc3wgh-28" vertex="1">
          <mxGeometry x="-10" y="82.72727272727273" width="130" height="47.27272727272727" as="geometry" />
        </mxCell>
        <mxCell id="DVOCkbZ2Qbf9s4pc3wgh-27" style="edgeStyle=orthogonalEdgeStyle;rounded=0;orthogonalLoop=1;jettySize=auto;html=1;entryX=0.5;entryY=0;entryDx=0;entryDy=0;" parent="1" source="EoMygJ7yTvaYGQsmGv9p-2" target="DVOCkbZ2Qbf9s4pc3wgh-31" edge="1">
          <mxGeometry relative="1" as="geometry">
            <mxPoint x="1040" y="970" as="targetPoint" />
          </mxGeometry>
        </mxCell>
        <mxCell id="DVOCkbZ2Qbf9s4pc3wgh-34" value="" style="endArrow=none;html=1;rounded=0;entryX=0.5;entryY=1;entryDx=0;entryDy=0;" parent="1" target="DVOCkbZ2Qbf9s4pc3wgh-32" edge="1">
          <mxGeometry width="50" height="50" relative="1" as="geometry">
            <mxPoint x="1045" y="1160" as="sourcePoint" />
            <mxPoint x="1080" y="950" as="targetPoint" />
          </mxGeometry>
        </mxCell>
        <mxCell id="DVOCkbZ2Qbf9s4pc3wgh-35" value="are the credit card payments processing&lt;br&gt;&amp;nbsp;in less than 10 seconds? &lt;br&gt;Is an api issue or an app issue?&amp;nbsp;" style="ellipse;shape=cloud;whiteSpace=wrap;html=1;fillColor=#ffe6cc;strokeColor=#d79b00;fontSize=12;strokeWidth=1;" parent="1" vertex="1">
          <mxGeometry x="900" y="1150" width="275" height="150" as="geometry" />
        </mxCell>
        <mxCell id="DVOCkbZ2Qbf9s4pc3wgh-36" value="" style="group" parent="1" connectable="0" vertex="1">
          <mxGeometry x="507.5" y="1060" width="110" height="110" as="geometry" />
        </mxCell>
        <mxCell id="DVOCkbZ2Qbf9s4pc3wgh-37" value="" style="group" parent="DVOCkbZ2Qbf9s4pc3wgh-36" connectable="0" vertex="1">
          <mxGeometry x="18.333333333333332" width="73.33333333333333" height="86.42857142857143" as="geometry" />
        </mxCell>
        <mxCell id="DVOCkbZ2Qbf9s4pc3wgh-38" value="" style="ellipse;whiteSpace=wrap;html=1;aspect=fixed;" parent="DVOCkbZ2Qbf9s4pc3wgh-37" vertex="1">
          <mxGeometry width="73.33333333333333" height="73.33333333333333" as="geometry" />
        </mxCell>
        <mxCell id="DVOCkbZ2Qbf9s4pc3wgh-39" value="" style="ellipse;whiteSpace=wrap;html=1;aspect=fixed;" parent="DVOCkbZ2Qbf9s4pc3wgh-37" vertex="1">
          <mxGeometry x="3.3333333333333335" y="3.9285714285714284" width="66.66666666666666" height="66.66666666666666" as="geometry" />
        </mxCell>
        <mxCell id="DVOCkbZ2Qbf9s4pc3wgh-41" value="&lt;span style=&quot;font-size: 13px;&quot;&gt;Filter the consistent reports&lt;/span&gt;" style="text;html=1;strokeColor=#666666;fillColor=#f5f5f5;align=center;verticalAlign=middle;whiteSpace=wrap;rounded=1;fontColor=#333333;" parent="DVOCkbZ2Qbf9s4pc3wgh-36" vertex="1">
          <mxGeometry y="70" width="110" height="40" as="geometry" />
        </mxCell>
        <mxCell id="DVOCkbZ2Qbf9s4pc3wgh-42" value="" style="endArrow=none;html=1;rounded=0;entryX=0.5;entryY=1;entryDx=0;entryDy=0;entryPerimeter=0;" parent="1" source="DVOCkbZ2Qbf9s4pc3wgh-39" target="DVOCkbZ2Qbf9s4pc3wgh-2" edge="1">
          <mxGeometry width="50" height="50" relative="1" as="geometry">
            <mxPoint x="560" y="1110" as="sourcePoint" />
            <mxPoint x="610" y="1060" as="targetPoint" />
          </mxGeometry>
        </mxCell>
        <mxCell id="DVOCkbZ2Qbf9s4pc3wgh-46" value="" style="group" parent="1" connectable="0" vertex="1">
          <mxGeometry x="707.5" y="1070" width="110" height="110" as="geometry" />
        </mxCell>
        <mxCell id="DVOCkbZ2Qbf9s4pc3wgh-47" value="" style="group" parent="DVOCkbZ2Qbf9s4pc3wgh-46" connectable="0" vertex="1">
          <mxGeometry x="18.333333333333332" width="73.33333333333333" height="86.42857142857143" as="geometry" />
        </mxCell>
        <mxCell id="DVOCkbZ2Qbf9s4pc3wgh-48" value="" style="ellipse;whiteSpace=wrap;html=1;aspect=fixed;" parent="DVOCkbZ2Qbf9s4pc3wgh-47" vertex="1">
          <mxGeometry width="73.33333333333333" height="73.33333333333333" as="geometry" />
        </mxCell>
        <mxCell id="DVOCkbZ2Qbf9s4pc3wgh-49" value="" style="ellipse;whiteSpace=wrap;html=1;aspect=fixed;" parent="DVOCkbZ2Qbf9s4pc3wgh-47" vertex="1">
          <mxGeometry x="3.3333333333333335" y="3.9285714285714284" width="66.66666666666666" height="66.66666666666666" as="geometry" />
        </mxCell>
        <mxCell id="DVOCkbZ2Qbf9s4pc3wgh-50" value="&lt;span style=&quot;font-size: 13px;&quot;&gt;Conversion rate of transactions&lt;/span&gt;" style="text;html=1;strokeColor=#666666;fillColor=#f5f5f5;align=center;verticalAlign=middle;whiteSpace=wrap;rounded=1;fontColor=#333333;" parent="DVOCkbZ2Qbf9s4pc3wgh-46" vertex="1">
          <mxGeometry y="70" width="110" height="40" as="geometry" />
        </mxCell>
        <mxCell id="DVOCkbZ2Qbf9s4pc3wgh-45" style="edgeStyle=orthogonalEdgeStyle;rounded=0;orthogonalLoop=1;jettySize=auto;html=1;entryX=0.5;entryY=0;entryDx=0;entryDy=0;" parent="1" source="EoMygJ7yTvaYGQsmGv9p-29" target="DVOCkbZ2Qbf9s4pc3wgh-48" edge="1">
          <mxGeometry relative="1" as="geometry">
            <mxPoint x="760" y="990" as="targetPoint" />
          </mxGeometry>
        </mxCell>
        <mxCell id="DVOCkbZ2Qbf9s4pc3wgh-51" value="Relation vetean the crashes reports and its consequences on the conversion rate." style="rounded=1;whiteSpace=wrap;html=1;" parent="1" vertex="1">
          <mxGeometry x="600" y="1200" width="120" height="60" as="geometry" />
        </mxCell>
        <mxCell id="DVOCkbZ2Qbf9s4pc3wgh-52" style="edgeStyle=orthogonalEdgeStyle;rounded=0;orthogonalLoop=1;jettySize=auto;html=1;entryX=0;entryY=0.5;entryDx=0;entryDy=0;" parent="1" source="DVOCkbZ2Qbf9s4pc3wgh-41" target="DVOCkbZ2Qbf9s4pc3wgh-51" edge="1">
          <mxGeometry relative="1" as="geometry" />
        </mxCell>
        <mxCell id="DVOCkbZ2Qbf9s4pc3wgh-53" style="edgeStyle=orthogonalEdgeStyle;rounded=0;orthogonalLoop=1;jettySize=auto;html=1;entryX=1;entryY=0.75;entryDx=0;entryDy=0;" parent="1" source="DVOCkbZ2Qbf9s4pc3wgh-50" target="DVOCkbZ2Qbf9s4pc3wgh-51" edge="1">
          <mxGeometry relative="1" as="geometry" />
        </mxCell>
        <mxCell id="DVOCkbZ2Qbf9s4pc3wgh-54" value="how much revenue is lost from the app crashes leaving incomplete transactions?&lt;span style=&quot;&quot;&gt;&lt;br&gt;&lt;/span&gt;" style="ellipse;shape=cloud;whiteSpace=wrap;html=1;fillColor=#e1d5e7;strokeColor=#9673a6;" parent="1" vertex="1">
          <mxGeometry x="555" y="1270" width="215" height="130" as="geometry" />
        </mxCell>
        <mxCell id="DVOCkbZ2Qbf9s4pc3wgh-55" value="" style="endArrow=none;html=1;rounded=0;exitX=0.5;exitY=1;exitDx=0;exitDy=0;entryX=0.488;entryY=0.154;entryDx=0;entryDy=0;entryPerimeter=0;" parent="1" source="DVOCkbZ2Qbf9s4pc3wgh-51" target="DVOCkbZ2Qbf9s4pc3wgh-54" edge="1">
          <mxGeometry width="50" height="50" relative="1" as="geometry">
            <mxPoint x="790" y="1130" as="sourcePoint" />
            <mxPoint x="658" y="1282" as="targetPoint" />
          </mxGeometry>
        </mxCell>
        <mxCell id="QrAxDVRu8yfyExS6uFE3-1" value="" style="group" vertex="1" connectable="0" parent="1">
          <mxGeometry x="1225" y="790" width="100" height="80" as="geometry" />
        </mxCell>
        <mxCell id="QrAxDVRu8yfyExS6uFE3-2" value="" style="shape=cylinder3;whiteSpace=wrap;html=1;boundedLbl=1;backgroundOutline=1;size=15;" vertex="1" parent="QrAxDVRu8yfyExS6uFE3-1">
          <mxGeometry width="100" height="80" as="geometry" />
        </mxCell>
        <mxCell id="QrAxDVRu8yfyExS6uFE3-3" value="&lt;font style=&quot;font-size: 16px;&quot;&gt;&lt;b&gt;Users Surveys DB&lt;/b&gt;&lt;/font&gt;" style="text;html=1;strokeColor=none;fillColor=none;align=center;verticalAlign=middle;whiteSpace=wrap;rounded=0;" vertex="1" parent="QrAxDVRu8yfyExS6uFE3-1">
          <mxGeometry y="40" width="100" height="30" as="geometry" />
        </mxCell>
        <mxCell id="QrAxDVRu8yfyExS6uFE3-4" value="" style="group" connectable="0" vertex="1" parent="1">
          <mxGeometry x="1370" y="790" width="170" height="120" as="geometry" />
        </mxCell>
        <mxCell id="QrAxDVRu8yfyExS6uFE3-5" value="" style="group" connectable="0" vertex="1" parent="QrAxDVRu8yfyExS6uFE3-4">
          <mxGeometry x="18.333333333333332" width="73.33333333333333" height="86.42857142857143" as="geometry" />
        </mxCell>
        <mxCell id="QrAxDVRu8yfyExS6uFE3-6" value="" style="ellipse;whiteSpace=wrap;html=1;aspect=fixed;" vertex="1" parent="QrAxDVRu8yfyExS6uFE3-5">
          <mxGeometry width="73.33333333333333" height="73.33333333333333" as="geometry" />
        </mxCell>
        <mxCell id="QrAxDVRu8yfyExS6uFE3-10" style="edgeStyle=orthogonalEdgeStyle;rounded=0;orthogonalLoop=1;jettySize=auto;html=1;" edge="1" parent="QrAxDVRu8yfyExS6uFE3-5" source="QrAxDVRu8yfyExS6uFE3-7">
          <mxGeometry relative="1" as="geometry">
            <mxPoint x="136.66666666666674" y="37.261904761904816" as="targetPoint" />
          </mxGeometry>
        </mxCell>
        <mxCell id="QrAxDVRu8yfyExS6uFE3-7" value="" style="ellipse;whiteSpace=wrap;html=1;aspect=fixed;" vertex="1" parent="QrAxDVRu8yfyExS6uFE3-5">
          <mxGeometry x="3.3333333333333335" y="3.9285714285714284" width="66.66666666666666" height="66.66666666666666" as="geometry" />
        </mxCell>
        <mxCell id="QrAxDVRu8yfyExS6uFE3-8" value="&lt;span style=&quot;font-size: 14px;&quot;&gt;Multiple Choice surveys that compile user&#39;s&amp;nbsp;opinions&lt;/span&gt;" style="text;html=1;strokeColor=#666666;fillColor=#f5f5f5;align=center;verticalAlign=middle;whiteSpace=wrap;rounded=1;fontColor=#333333;" vertex="1" parent="QrAxDVRu8yfyExS6uFE3-4">
          <mxGeometry x="-35" y="70" width="180" height="50" as="geometry" />
        </mxCell>
        <mxCell id="QrAxDVRu8yfyExS6uFE3-9" style="edgeStyle=orthogonalEdgeStyle;rounded=0;orthogonalLoop=1;jettySize=auto;html=1;entryX=0;entryY=0.5;entryDx=0;entryDy=0;" edge="1" parent="1" source="QrAxDVRu8yfyExS6uFE3-2" target="QrAxDVRu8yfyExS6uFE3-7">
          <mxGeometry relative="1" as="geometry" />
        </mxCell>
        <mxCell id="QrAxDVRu8yfyExS6uFE3-11" value="Graphic with the most common reasons for cancellations" style="rounded=1;whiteSpace=wrap;html=1;" vertex="1" parent="1">
          <mxGeometry x="1485" y="792.26" width="120" height="60" as="geometry" />
        </mxCell>
        <mxCell id="QrAxDVRu8yfyExS6uFE3-13" value="What are the most common reasons for users canceling their parking reservations, and can we implement features to address these issues? (update/feature improvement - reducing reservation cancellations)" style="ellipse;shape=cloud;whiteSpace=wrap;html=1;fillColor=#d5e8d4;strokeColor=#82b366;spacingTop=5;" vertex="1" parent="1">
          <mxGeometry x="1470" y="900" width="280" height="170" as="geometry" />
        </mxCell>
        <mxCell id="QrAxDVRu8yfyExS6uFE3-14" value="" style="endArrow=none;html=1;rounded=0;entryX=0.75;entryY=1;entryDx=0;entryDy=0;exitX=0.373;exitY=0.1;exitDx=0;exitDy=0;exitPerimeter=0;" edge="1" parent="1" source="QrAxDVRu8yfyExS6uFE3-13" target="QrAxDVRu8yfyExS6uFE3-11">
          <mxGeometry width="50" height="50" relative="1" as="geometry">
            <mxPoint x="1430" y="1040" as="sourcePoint" />
            <mxPoint x="1480" y="990" as="targetPoint" />
          </mxGeometry>
        </mxCell>
        <mxCell id="QrAxDVRu8yfyExS6uFE3-17" value="" style="endArrow=none;html=1;rounded=0;" edge="1" parent="1">
          <mxGeometry width="50" height="50" relative="1" as="geometry">
            <mxPoint x="1430" y="1100" as="sourcePoint" />
            <mxPoint x="1430" y="910" as="targetPoint" />
          </mxGeometry>
        </mxCell>
        <mxCell id="QrAxDVRu8yfyExS6uFE3-18" value="Would it enhance the daily user &lt;br&gt;experience to provide a history &lt;br&gt;of the user&#39;s recent actions, allowing&lt;br&gt;&amp;nbsp;them to review and track their parking reservations? (improving daily usage/interaction)" style="ellipse;shape=cloud;whiteSpace=wrap;html=1;fillColor=#dae8fc;strokeColor=#6c8ebf;spacingTop=5;" vertex="1" parent="1">
          <mxGeometry x="1310" y="1090" width="250" height="160" as="geometry" />
        </mxCell>
        <mxCell id="QrAxDVRu8yfyExS6uFE3-19" value="" style="endArrow=none;html=1;rounded=0;entryX=0.5;entryY=1;entryDx=0;entryDy=0;" edge="1" parent="1" target="EoMygJ7yTvaYGQsmGv9p-156">
          <mxGeometry width="50" height="50" relative="1" as="geometry">
            <mxPoint x="1210" y="1030" as="sourcePoint" />
            <mxPoint x="1440" y="900" as="targetPoint" />
          </mxGeometry>
        </mxCell>
      </root>
    </mxGraphModel>
  </diagram>
</mxfile>
